$MeshFormat
4.1 0 8
$EndMeshFormat
$PhysicalNames
1
3 1 "DamBody"
$EndPhysicalNames
$Entities
108 12 6 1
1 0 78 0 0 
2 1.949797 77.97562600000001 0 0 
3 2.924315 77.94516299999999 0 0 
4 3.898375 77.90252 0 0 
5 4.871827 77.847706 0 0 
6 6.816294 77.70159700000001 0 0 
7 7.787006 77.610325 0 0 
8 8.756501999999999 77.506927 0 0 
9 9.724629 77.391418 0 0 
10 10.691237 77.263817 0 0 
11 12.61929 76.97242 0 0 
12 13.580435 76.80867000000001 0 0 
13 15.496208 76.445193 0 0 
14 16.450537 76.24552300000001 0 0 
15 17.402296 76.03394 0 0 
16 20.240666 75.328052 0 0 
17 22.117346 74.79854899999999 0 0 
18 24.906085 73.916757 0 0 
19 26.746029 73.271072 0 0 
20 29.474247 72.216818 0 0 
21 31.270269 71.457472 0 0 
22 32.161021 71.061021 0 0 
23 33.046748 70.65346700000001 0 0 
24 34.802574 69.805307 0 0 
25 38.247891 67.97866399999999 0 0 
26 41.597609 65.982111 0 0 
27 46.42469 62.679727 0 0 
28 50.24898 59.657691 0 0 
29 57.294727 52.927443 0 0 
30 59.868393 49.997755 0 0 
31 63.446409 45.371281 0 0 
32 65.102828 42.9607 0 0 
33 67.16860699999999 39.653225 0 0 
34 68.60803199999999 37.107115 0 0 
35 70.79176 32.749453 0 0 
36 71.195587 31.86202 0 0 
37 71.969807 30.07236 0 0 
38 72.699049 28.263905 0 0 
39 73.04665900000001 27.352982 0 0 
40 73.70758600000001 25.518459 0 0 
41 74.02079999999999 24.595144 0 0 
42 74.32244900000001 23.667987 0 0 
43 74.61248500000001 22.737131 0 0 
44 74.890862 21.802723 0 0 
45 75.157538 20.864909 0 0 
46 77.64237300000001 7.46069 0 0 
47 77.804609 5.517502 0 0 
48 77.867498 4.544538 0 0 
49 77.956767 2.596634 0 0 
50 77.99931100000001 -0.327886 0 0 
51 77.932181 -3.251944 0 0 
52 77.755472 -6.171429 0 0 
53 0 82 0 0 
54 2.049786 81.97437600000001 0 0 
55 3.074279 81.942351 0 0 
56 4.098292 81.897521 0 0 
57 5.121664 81.839896 0 0 
58 7.165848 81.686294 0 0 
59 8.18634 81.59034200000001 0 0 
60 9.205553 81.481641 0 0 
61 10.223328 81.360209 0 0 
62 11.239506 81.22606399999999 0 0 
63 13.266433 80.919724 0 0 
64 14.276867 80.747576 0 0 
65 16.290885 80.365459 0 0 
66 17.294154 80.15555000000001 0 0 
67 18.294722 79.933117 0 0 
68 21.278649 79.191029 0 0 
69 23.251569 78.634372 0 0 
70 26.18332 77.70735999999999 0 0 
71 28.11762 77.02856199999999 0 0 
72 30.985746 75.920244 0 0 
73 32.873872 75.12195800000001 0 0 
74 33.810304 74.70517599999999 0 0 
75 34.741453 74.27672200000001 0 0 
76 36.587322 73.38506599999999 0 0 
77 40.209322 71.46475 0 0 
78 43.730819 69.365809 0 0 
79 48.805444 65.89407199999999 0 0 
80 52.82585 62.717059 0 0 
81 60.232918 55.641671 0 0 
82 62.938567 52.561742 0 0 
83 66.70007099999999 47.698013 0 0 
84 68.441435 45.163813 0 0 
85 70.613151 41.686724 0 0 
86 72.126392 39.010044 0 0 
87 74.422107 34.428912 0 0 
88 74.846643 33.49597 0 0 
89 75.660567 31.614532 0 0 
90 76.427205 29.713336 0 0 
91 76.792641 28.755699 0 0 
92 77.48746199999999 26.827098 0 0 
93 77.816739 25.856434 0 0 
94 78.13385599999999 24.88173 0 0 
95 78.438766 23.903138 0 0 
96 78.731419 22.920812 0 0 
97 79.011771 21.934904 0 0 
98 81.624033 7.84329 0 0 
99 81.794589 5.800451 0 0 
100 81.860703 4.777592 0 0 
101 81.95455 2.729794 0 0 
102 81.999275 -0.3447 0 0 
103 81.928703 -3.41871 0 0 
104 81.742932 -6.487913 0 0 
105 0 78 26 0 
106 77.755472 -6.171429 26 0 
107 81.742932 -6.487913 26 0 
108 0 82 26 0 
1 -1.000000011686097e-07 -6.171429099999997 -1e-07 78.01759718171451 78.00000009999999 1e-07 0 2 1 -52 
2 -1.000000011686097e-07 -6.4879131 -1e-07 82.01849845640851 82.00000009999999 1e-07 0 2 53 -104 
3 -1e-07 77.99999990000001 -1e-07 1e-07 82.00000009999999 1e-07 0 2 1 -53 
4 77.7554719 -6.4879131 -1e-07 81.74293209999999 -6.1714289 1e-07 0 2 52 -104 
5 -1e-07 77.99999990000001 -9.99999993922529e-08 1e-07 78.00000009999999 26.0000001 0 2 1 -105 
6 77.7554719 -6.1714291 -9.99999993922529e-08 77.75547209999999 -6.1714289 26.0000001 0 2 52 -106 
7 -1.000000011686097e-07 -6.171429099999997 25.9999999 78.01759718171451 78.00000009999999 26.0000001 0 2 105 -106 
8 81.7429319 -6.4879131 -9.99999993922529e-08 81.74293209999999 -6.4879129 26.0000001 0 2 104 -107 
9 77.7554719 -6.4879131 25.9999999 81.74293209999999 -6.1714289 26.0000001 0 2 106 -107 
10 -1e-07 81.99999990000001 -9.99999993922529e-08 1e-07 82.00000009999999 26.0000001 0 2 53 -108 
11 -1.000000011686097e-07 -6.4879131 25.9999999 82.01849845640851 82.00000009999999 26.0000001 0 2 108 -107 
12 -1e-07 77.99999990000001 25.9999999 1e-07 82.00000009999999 26.0000001 0 2 105 -108 
1 -1.000000011686097e-07 -6.4879131 -1e-07 82.01849845640851 82.00000009999999 1e-07 0 4 1 4 -2 -3 
2 -1.000000011686097e-07 -6.171429099999997 -9.99999993922529e-08 77.97771961665073 78.00000009999999 26.0000001 0 4 5 7 -6 -1 
3 77.7554719 -6.4879131 -9.99999993922529e-08 81.74293209999999 -6.1714289 26.0000001 0 4 6 9 -8 -4 
4 -1.000000011686097e-07 -6.4879131 -9.99999993922529e-08 81.97657694087498 82.00000009999999 26.0000001 0 4 10 11 -8 -2 
5 -1e-07 77.99999990000001 -9.99999993922529e-08 1e-07 82.00000009999999 26.0000001 0 4 5 12 -10 -3 
6 -1.000000011686097e-07 -6.4879131 25.9999999 82.01849845640851 82.00000009999999 26.0000001 0 4 7 9 -11 -12 
1 -1.000000011686097e-07 -6.4879131 -9.99999993922529e-08 82.01849845640851 82.00000009999999 26.0000001 1 1 6 -2 -3 4 5 -1 6 
$EndEntities
